<svg xmlns="http://www.w3.org/2000/svg" viewBox="0 0 300 275.88"><defs><style>.cls-1{fill:#5daced;}.cls-2{fill:#ed1c24;}.cls-3{fill:#fcfc44;}.cls-4{fill:#2ad82a;}.cls-5{fill:#1982ff;}</style></defs><g id="Layer_3" data-name="Layer 3"><path class="cls-1" d="M2.7743,203.1828S23.5992,173.984,23.5992,173.89s11.0084-14.2387,11.0084-14.2387l6.8685-4.1085L55.0875,152.03l5.8021-.6586,3.7636-60.0285,2.5717-13.6742-.3763-65.7365H77.3238l.2509,78.1562,7.2134,61.0948,29.23.4391,24.9021-.1882,6.21-74.0163V12.4968h10.0361v80.54l6.5862,58.3349,57.6449-.4391L222.471,76.916l.3763-64.9838,9.9107.8155.69,68.4964,6.5234,70.6918,16.7478,2.8227,9.4088,5.269,21.7031,28.352,8.5934,13.5487L295.02,248.22l-1.6687,5.2063-7.7153,6.398-8.5307,3.5126-10.5379.2509-3.5126,5.8962-7.0253,4.42-5.9187,1.2881-7.6928-1.7563-11.416-8.3425-2.8227-1.9445-128.3367.439-31.1747-.439-5.018,5.4571-7.4644,4.83-5.3317,1.3172-6.9625-.8576-6.1471-3.4539-4.3908-6.6655L22.69,262.4826,13.03,259.14l-6.1472-5.2125L.9239,235.9244,2.4921,203.371Z" transform="translate(0 0)"/></g><g id="Layer_2" data-name="Layer 2"><circle class="cls-2" cx="110.6946" cy="236.048" r="6.91"/><circle class="cls-3" cx="190.0407" cy="235.8692" r="6.91"/><circle class="cls-4" cx="78.6223" cy="235.7683" r="6.91"/></g><g id="Layer_1" data-name="Layer 1"><path class="cls-5" d="M149.9635,204.2985c-39.2433-.051-78.49.0883-117.7317.0232a38.6235,38.6235,0,0,1-7.0611-.7309,7.0841,7.0841,0,0,1-5.6919-7.5111,11.0651,11.0651,0,0,1,2.241-5.2305c4.07-5.7423,8.1938-11.4468,12.225-17.216,2.03-2.9057,3.8574-5.9529,5.8652-8.8751a13.178,13.178,0,0,1,6.7088-5.38c.2168-.0719.4716-.2261.6522-.1675a5.34,5.34,0,0,1,.9658.5337c-.1781.2828-.3094.7641-.5412.8187-4.1659.9815-6.4151,4.1719-8.6214,7.41-4.397,6.454-8.8037,12.9015-13.16,19.3826a60.3644,60.3644,0,0,0-3.8032,6.2142c-2.16,4.2458-.18,8.2445,4.52,9.1381a36.3223,36.3223,0,0,0,6.8122.6848c9.56-.0195,19.1189-.213,28.6787-.2569,31.9732.0862,63.9462-.1955,95.9194-.2845,34.95-.0354,69.9008.23,104.851.18,3.4253-.0063,6.8541-.3692,10.2732-.6616,4.0053-.2418,7.2012-3.9224,5.2412-7.8573a39.935,39.935,0,0,0-3.053-5.25c-5.726-8.4441-11.1006-17.1548-17.2226-25.319a8.5462,8.5462,0,0,0-5.1444-3.1984c-.3072-.06-.7681-.5571-.7467-.8184.0439-.5377.5559-.6535,1.0643-.5222a9.9,9.9,0,0,1,5.3131,3.3,61.7171,61.7171,0,0,1,4.5425,6.3343c4.1435,6.6618,8.5859,13.1155,13.1267,19.5092a33.3448,33.3448,0,0,1,3.56,6.1324c1.4342,3.3659-.0247,6.61-3.3214,8.2257a17.9388,17.9388,0,0,1-8.1284,1.434q-59.1664-.2078-118.3332-.1223Z" transform="translate(0 0)"/><path class="cls-5" d="M112.562,157.9133c33.985-.8833,68.0454-.5835,102.0568-.8184q10.3875-.0375,20.7752-.0308a2.4441,2.4441,0,0,1,.8252.34c-.28.128-.5577.3646-.8388.3683q-61.3949.9438-122.7988.4846Z" transform="translate(0 0)"/><path class="cls-5" d="M82.993,176.67c28.169-2.1792,56.5324-2.3723,84.7932-2.0412,15.67.3987,31.3878.5227,46.9972,1.938-43.4212-1.4638-88.0921-2.0541-131.7654.33Z" transform="translate(0 0)"/><path class="cls-5" d="M92.4562,170.6471c36.4911-1.8882,73.1363-1.1058,109.6753-.3586.9151.0171,1.83.0738,2.7433.1383a4.3481,4.3481,0,0,1,.7986.2247c-37.3638-.3526-75.5874-.7927-113.1849.2743Z" transform="translate(0 0)"/><path class="cls-5" d="M183.2553,181.5422c-21.247.1385-42.5033-.2949-63.7518.0388a.5176.5176,0,0,1-.1706.0011c-.3075-.1119-.6119-.2322-.9173-.35a2.987,2.987,0,0,1,.8708-.3c18.8887-.39,37.7809-.16,56.6719-.115,2.1465.0079,4.293.0614,6.4389.1152a4.88,4.88,0,0,1,.9368.2072Z" transform="translate(0 0)"/><path class="cls-5" d="M150.5625,186.3476c-5.4915,0-10.9831.0053-16.4746-.0154a2.4336,2.4336,0,0,1-.8247-.3461,2.5211,2.5211,0,0,1,.8414-.3594c11.1482-.1365,22.3192.009,33.4583.11.1131.0363.2867.202.2692.2627-.0387.1345-.1693.3254-.2826.34-5.6567.0926-11.3263.0029-16.987.0332Z" transform="translate(0 0)"/><path class="cls-5" d="M203.2645,182.4951a4.696,4.696,0,0,1,1.1523-.245c3.77.1565,7.5421.3027,11.3084.5329,6.5572.51,13.1807.6506,19.6988,1.4433l.0443.31a2.5379,2.5379,0,0,1-.8078.231c-4.1072-.2761-8.2108-.6066-12.3191-.8625-6.3267-.3719-12.6544-.7525-18.9877-.9951Z" transform="translate(0 0)"/><path class="cls-5" d="M61.5015,184.2337c9.4814-.8765,19.0323-1.1487,28.5381-1.8022.8555-.05,1.713-.0912,2.5692-.0848a.8823.8823,0,0,1,.6826.4768Q77.54,183.81,61.787,184.7868c-.1478.0091-.3049-.1325-.4577-.2038Z" transform="translate(0 0)"/><path class="cls-5" d="M230.6272,235.9688a8.26,8.26,0,0,1-8.3152,8.2694c-11.1479-.2943-10.863-16.4647.0451-16.706A8.3151,8.3151,0,0,1,230.6272,235.9688Zm-8.3089,6.261a6.287,6.287,0,0,0,6.3192-6.1367,6.29,6.29,0,1,0-6.3192,6.1367Z" transform="translate(0 0)"/><path class="cls-5" d="M70.2506,235.8152a8.1349,8.1349,0,0,1,8.0982-8.2512c11.0147.2477,11.1742,16.4125.1361,16.66A8.2051,8.2051,0,0,1,70.2506,235.8152Zm14.4885.2758a6.3587,6.3587,0,0,0-6.3213-6.4411,6.2,6.2,0,0,0-6.1641,6.17,6.4,6.4,0,0,0,6.27,6.4054A6.2356,6.2356,0,0,0,84.7391,236.091Z" transform="translate(0 0)"/><path class="cls-5" d="M142.6291,227.7392a8.2141,8.2141,0,0,1,.2124,16.4265,8.33,8.33,0,0,1-8.3137-8.13A8.0271,8.0271,0,0,1,142.6291,227.7392Zm6.2226,8.33a6.16,6.16,0,0,0-12.3082-.5012c-.09,2.7724,2.9485,6.5705,6.1036,6.5156A6.1525,6.1525,0,0,0,148.8517,236.07Z" transform="translate(0 0)"/><path class="cls-5" d="M198.2466,235.9312a8.1771,8.1771,0,0,1-8.1678,8.2969c-10.9421-.2413-11.12-16.16-.15-16.6564A8.2544,8.2544,0,0,1,198.2466,235.9312Zm-1.9949.1387a6.2313,6.2313,0,1,0-6.3608,6.1559A6.2125,6.2125,0,0,0,196.2517,236.07Z" transform="translate(0 0)"/><path class="cls-5" d="M118.856,235.8685a8.1264,8.1264,0,0,1-8,8.3548c-10.9952-.2094-11.2655-16.0971-.4148-16.7075A8.2857,8.2857,0,0,1,118.856,235.8685ZM116.8647,236a6.3712,6.3712,0,0,0-6.2887-6.3848,6.2781,6.2781,0,0,0-6.1853,6.176,6.5145,6.5145,0,0,0,6.1638,6.4418A6.2685,6.2685,0,0,0,116.8647,236Z" transform="translate(0 0)"/><path class="cls-5" d="M145.7749,232.5291c1.4092.8565,1.6258,2.2358,1.5038,3.7128a4.7411,4.7411,0,0,1-7.1468,3.6705l.0141-.351a3.4814,3.4814,0,0,1,.9273.0114,4.0959,4.0959,0,0,0,4.76-6.1307,4.9011,4.9011,0,0,1-.3647-.7859Z" transform="translate(0 0)"/><path class="cls-5" d="M249.547,221.245c-.858.0213-1.7162.0487-2.5744.0492-65.296-.016-130.5928.1176-195.8885-.0252-.8319-.009-1.1071.2821-1.0288,1.1074.3841,8.7458.1753,17.5179.3375,26.2723a9.0508,9.0508,0,0,0,.13,1.0584l1.5851,1.1919c64.126-.7934,128.3824.0026,192.5533-.27.5369,0,.95.0383,1.2684.0516h0l3.3279.82h0l.3357-.028c.2572-9.3318.1473-18.6837.2864-28.0222a6.3759,6.3759,0,0,1,.1844-1.5144C250.1955,221.4249,250.0534,221.2325,249.547,221.245Zm-4.9564,27.8594q-47.4479-.0679-94.8961-.0168v.0064q-47.277,0-94.5541,0c-1.1984,0-1.2348-.0042-1.2366-1.1771-.0117-7.9294-.0006-15.8587-.0179-23.788-.0018-.8259.3134-1.0613,1.1256-1.0606q94.3368.1033,188.6737.03c2.3436,0,2.0973-.3011,2.105,2.1216-.0014,7.5838.0835,15.1759-.0233,22.7551C245.8,248.84,245.4336,249.1082,244.5906,249.1044Z" transform="translate(0 0)"/><path class="cls-5" d="M299.9987,211.1037a18.4888,18.4888,0,0,0-2.4633-10.2846c-1.9882-3.17-4.0638-6.2982-6.2925-9.3027-6.6993-9.0316-13.4809-18.0023-20.2578-26.9761a32.9476,32.9476,0,0,0-4.0969-4.9371c-6.9414-6.28-16.3339-7.7107-25.3119-8.5369-.6189-.0745-.925-.278-.8925-.9491.0344-.713-.0315-1.43-.0311-2.1456q.0126-23.6166.0192-47.2332a8.457,8.457,0,0,0-.2762-2.4587c-1.7019-5.5182-3.4711-11.0156-5.1954-16.527a16.0223,16.0223,0,0,1-1.0159-4.9175c.0531-11.5649.0274-23.13.0274-34.6952h.017q0-17.82.011-35.64A6.2689,6.2689,0,0,0,225.5054.506a5.9468,5.9468,0,0,0-3.7166,5.8315q-.0076,34.6524-.0012,69.3048a15.35,15.35,0,0,1-.6915,4.9613c-1.6143,4.8577-3.1308,9.7485-4.6375,14.6411a21.625,21.625,0,0,0-1.3842,6.5011c.0509,15.7729.015,31.5461.0037,47.3192-.0011,1.5717-.0113,1.5894-1.5933,1.59q-24.132.0071-48.2642.001c-2.252-.0006-2.2467-.0153-2.2465-2.312q.002-23.8317-.01-47.6632a6.8863,6.8863,0,0,0-.237-2.03c-1.6867-5.3747-3.4511-10.7251-5.1123-16.1074-.56-1.8128-1.4021-3.5437-1.3986-5.5336q.04-35.382.0236-70.7642A5.6981,5.6981,0,0,0,152.8027.6636a6.1638,6.1638,0,0,0-6.78.7862,6.3867,6.3867,0,0,0-2.204,5.35q.0159,35.3825.0029,70.7648a4.3045,4.3045,0,0,1-.1,1.2746c-1.5282,4.8263-2.9441,9.6947-4.6724,14.4492a34.8856,34.8856,0,0,0-1.9412,12.4263c.108,14.2263.0244,28.4541.0122,42.6814-.0019,2.2-.0072,2.2206-2.1662,2.2238q-21.77.0321-43.5407.0477c-1.6889.0017-3.3779-.0077-5.0667.0062-.6732.0056-.9773-.247-.961-.965.0325-1.43-.0093-2.8621-.01-4.2934q-.0169-21.8133-.0462-43.6266a11.3065,11.3065,0,0,0-.3757-3.2131c-1.8644-6.1584-3.8349-12.2846-5.7016-18.4423a13.0188,13.0188,0,0,1-.5857-3.6945q-.0678-35.0814-.0117-70.1631C78.8181-.568,69.2386-2.3018,66.7608,3.76a9.95,9.95,0,0,0-.5573,3.6811q-.0492,34.3087-.0174,68.6177a15.3885,15.3885,0,0,1-.668,4.8811c-1.576,4.8412-3.0328,9.7214-4.5159,14.5926A16.8724,16.8724,0,0,0,59.8939,99.73c-.1342,4.5472-.0341,9.1013-.026,13.6527q.0317,17.9053.0555,35.8108c.0012,1.5515-.0538,1.5268-1.5948,1.6487-9.1681.7543-20.3817,3.2021-26.7226,10.3715-1.7289,2.1316-3.3268,4.37-4.97,6.57C18.94,178.2087,11.0073,188.4716,3.463,199.0028A19.2231,19.2231,0,0,0,.0046,210.5509c.1461,7.0963.0293,14.1977.0514,21.2969.0084,2.7174-.0308,5.4439.1736,8.1493.8469,16.104,16.34,24.954,31.21,24.5636a1.3684,1.3684,0,0,1,1.003.3916c4.0256,6.9526,9.4082,10.9879,17.6371,10.8507,8.8441.007,13.968-6.085,20.477-10.9613a3.6716,3.6716,0,0,1,2.0559-.6072c2.5749-.0433,5.1517.0558,7.7279.0545q73.4682-.0934,146.9365-.0369a3.2741,3.2741,0,0,1,1.7214.3148c1.3264.891,2.55,1.9338,3.8229,2.9059a81.927,81.927,0,0,0,7.2564,5.4516c5.2841,3.1728,10.9432,3.9889,16.7616,1.4748a20.7678,20.7678,0,0,0,10.0944-8.4607,2.4813,2.4813,0,0,1,2.5223-1.4519,34.479,34.479,0,0,0,15.9565-3.4689c9.8362-4.8165,14.8983-13.8269,14.5172-24.6663C299.9846,227.9357,299.9247,219.5191,299.9987,211.1037ZM228.5573,28.8076a2.8013,2.8013,0,0,0-.5937-.6734,3.6829,3.6829,0,0,0-.65.6735c-.1.172-.0231.4472-.0232.6761q-.01,23.7875-.0016,47.5748c.001.8461-.1914,1.1567-1.0839,1.1382-2.3251-.0483-2.3406-.01-2.3393-2.418-.0028-19.865.0522-39.7305.0392-59.5954-.0047-.8138.2315-1.1106,1.0643-1.0911,2.0027.047,4.0071.0086,6.0108.0193,1.1249.0059,1.1263.019,1.1261,1.158q-.0055,30.94-.011,61.8657c-1.0427,0-1.9815-.0048-2.92.0018-.5908.0042-.6-.397-.6-.82q-.0075-23.83.0188-47.66A2.2955,2.2955,0,0,0,228.5573,28.8076Zm-77.9118-2.4147c-.015-.4357.0039-.9238-.6155-.93-.6218-.0064-.7157.43-.7158.9424-.0388,16.8316.0137,33.6632.0184,50.4949.0011,1.3009-.0054,1.3133-1.3367,1.2795-2.2264-.0566-2.0025.36-2.0046-2.0358q-.0261-29.67-.0093-59.34c.0008-1.9456-.1141-1.6955,1.7188-1.7079,1.8033-.0122,3.6079.044,5.41-.0083.7964-.0231,1.0186.2256,1.0167,1.0154q-.0359,15.2857-.0158,30.5717h.0025q0,15.2.0173,30.4c.0022.8146-.2134,1.177-1.0471,1.084a6.1906,6.1906,0,0,0-.7721.0117c-1.5987.0233-1.6243.0231-1.6279-1.63-.0105-15.8575.0365-31.715.0411-47.5725C150.7257,28.1092,150.6749,27.251,150.6455,26.3929ZM73.0113,29.0813c-.0167-.4478.0575-1.0129-.6165-1.0153-.67-.0023-.706.5-.7046,1.0333q.0322,23.7855.0365,47.5709c.0009,1.5742-.0061,1.6007-1.6069,1.54-2.0723-.0791-1.7949.2485-1.7965-1.7856q-.0117-14.8555-.0035-29.7111h.0072q0-14.8984.0039-29.7969c.002-2.15-.041-1.8014,1.7914-1.8141,1.7746-.0123,3.55.0385,5.3235-.011.8167-.0228,1.0711.2255,1.0691,1.062q-.0342,13.911-.0009,27.822.0194,16.6155.0673,33.231c.0026.72-.213.9811-.92.941a13.3982,13.3982,0,0,0-1.7155.0458c-.5751.0415-.8379-.1624-.8367-.7719C72.978,61.3091,73.2872,45.19,73.0113,29.0813ZM8.5824,195.6578Q18.63,182.1107,28.7146,168.5914c1.35-1.8125,2.7115-3.6162,4.0486-5.438,5.0026-6.3491,15.3111-9.1162,23.0879-9.9558,7.8507-.8819,15.73-.4169,23.595-.45,51.6114-.105,103.2262.0037,154.8366.0066,10.5672.1975,21.8693,1.1679,30.5569,7.8165,1.7875,1.3333,2.9184,3.2051,4.2183,4.9395,7.5162,9.9928,14.9516,20.0481,22.4937,30.0206a2.3708,2.3708,0,0,1,.4621,1.9962c-1.1488,8.4612-9.3608,13.0135-17.1278,14.1356-4.3787.7589-8.7935.4492-13.1955.4516q-56.4637.0045-112.9276-.0144c-39.1021.0324-78.2051-.0816-117.3066.0583-9.0831.0886-20.4636-2.8535-22.9109-12.8885a12.23,12.23,0,0,1-.3876-2.3643A2.1175,2.1175,0,0,1,8.5824,195.6578Zm27.63,71.33a139.4741,139.4741,0,0,0,27.7647.37C56.5192,275.577,42.96,276.6876,36.2123,266.9873Zm199.8958.9141c9.4748.148,18.1464-.0726,27.6208-.7012C255.5628,276.2209,244.8892,275.8206,236.1081,267.9014Zm38.3162-5.7827c-4.3492.3768-8.7445.3076-13.1189.2939q-100.8069-.5183-201.6174-.1937c-9.8747.06-19.7488.2389-29.6235.2636a31.4214,31.4214,0,0,1-19.7387-6.5676,4.5967,4.5967,0,0,0-.9208-.4292l.36-.4183a51.7175,51.7175,0,0,0,22.8076,4.92c34.5458.2991,69.0918.27,103.6389.1752,44.5071-.0577,89.0161.2631,133.5211-.2939a44.9323,44.9323,0,0,0,20.9814-5.2592l.1539.1824A26.6573,26.6573,0,0,1,274.4243,262.1187Zm18.4168-10.51a32.66,32.66,0,0,1-17.4644,6.73c-5.7191.47-11.4867.44-17.2336.4651-74.7344.2542-149.4769.6115-224.2079-.0023a63.6875,63.6875,0,0,1-9.8477-.3922c-6.3842-1.0636-12.748-3.0031-17.51-7.6318l.1215-.1746a.7612.7612,0,0,1,.2824.0549c6.8758,4.7578,15.2,6.501,23.4369,6.6116q120.69-.42,241.3829-.0281a38.6223,38.6223,0,0,0,21.5638-6.5509l.3544.4046A7.8512,7.8512,0,0,0,292.8411,251.6082ZM40.8515,218.82c1.0179-.0023,2.036.0012,3.0531.0158.7842-.0052,1.0947.1986,1.0925,1.06q-.0452,17.1319-.0267,34.2641c0,1.216-.0032,1.2194-1.2253,1.2147q-1.34-.0052-2.6794-.0079Zm6.3549.701c-.0015-.8027.2987-.935,1.0036-.9353q50.918-.1155,101.8361-.0574v-.0053c34.03.0681,68.0651-.1394,102.0927.0855.58,0,.7339.2393.732.7721q-.0557,17.8567-.1138,35.7173c.0437.8247-.3141,1.0346-1.0531,1.0121-1.7732-.0542-3.5477-.0919-5.3217-.0926q-99.0461.0106-198.0925.0266c-.9013.0109-1.0927-.3178-1.0909-1.1463Q47.2365,237.209,47.2064,219.5206Zm207.9546.3642c-.0024-.7537.2192-.9646.9723-.9671,1.0786-.0334,2.1628-.0492,3.2507-.0547l-.0478,8.1584c-.03.0167-.0608.0337-.0914.05.03.0159.06.0338.0908.0526l-.0273,4.6675-.0111.0057.0109.0063-.0279,4.7682c-.0125.0064-.0249.0135-.0374.0194.0124.0067.0248.0148.0372.0221l-.11,18.7729c-.9408.0069-1.8793.0211-2.814.0487-1.1706.0081-1.214-.0307-1.216-1.2026C255.1267,242.7832,255.1939,231.3339,255.161,219.8848Zm36.8329-9.8253c-6.9664,7.9161-18.3648,6.6292-27.9071,6.7195q-117.897.0115-235.794-.0084c-7.84.0925-16.8335-1.13-21.457-8.2572A11.385,11.385,0,0,1,5.02,202.335,3.873,3.873,0,0,1,6.29,199.2308c.11.1422.2106.2166.232.3094,2.4042,11.2776,15.0655,14.6815,25.1723,14.6792q118.4983-.0915,236.9966-.0024c10.3191-.0228,22.331-3.8168,25.1107-14.9749l.3291-.0885a8.508,8.508,0,0,1,.8322,2.1478A11.1823,11.1823,0,0,1,291.9939,210.06Z" transform="translate(0 0)"/><path class="cls-5" d="M235.0788,157.4244l-64.8583.3189-57.6585.17-8.4366,7.159.0532.1935h90.4672l40.9037-7.5225Z" transform="translate(0 0)"/><polygon class="cls-5" points="92.456 170.647 83.018 176.896 101.191 175.699 145.036 174.862 187.988 175.38 214.783 176.566 205.673 170.652 164.654 169.923 132.758 169.923 92.456 170.647"/><polygon class="cls-5" points="119.333 181.582 133.263 185.986 167.832 186 183.255 181.542 149.065 181.149 119.333 181.582"/></g></svg>