<svg xmlns="http://www.w3.org/2000/svg" viewBox="0 0 1408.4116 1295.1751"><defs><style>.cls-1{fill:#ed1c24;}.cls-2{fill:#fcfc44;}.cls-3{fill:#2ad82a;}.cls-4{fill:#82c3f9;}</style></defs><g id="Layer_2" data-name="Layer 2"><circle class="cls-1" cx="519.6784" cy="1108.1758" r="32.4405"/><circle class="cls-2" cx="892.1853" cy="1107.3365" r="32.4405"/><circle class="cls-3" cx="369.1086" cy="1106.8627" r="32.4405"/></g><g id="Layer_1" data-name="Layer 1"><path class="cls-4" d="M1099.5554,197.8349c0,54.2948.12,108.59-.1287,162.8836-.0376,8.2016,2.4188,15.5725,4.7694,23.0863,8.0949,25.8745,16.4009,51.6832,24.3909,77.59a39.7,39.7,0,0,1,1.2965,11.5427q.0329,110.8728-.09,221.7457c-.0018,3.3585.3073,6.7258.1456,10.0732-.1523,3.1507,1.2846,4.1059,4.19,4.4555,42.1492,3.879,86.2443,10.5957,118.8317,40.0785,7.421,6.5954,13.18,15.1615,19.2341,23.1782,31.8154,42.1293,63.6531,84.244,95.1045,126.6446,10.4629,14.1053,20.2071,28.79,29.5413,43.6735,9.1841,14.6439,11.7153,31.1073,11.5644,48.2832-.3472,39.5081-.066,79.0215-.3264,118.5308,1.7891,50.8877-21.9756,93.1889-68.154,115.8009-23.5334,11.73-48.7491,16.5479-74.911,16.2852-5.7534-.0578-8.7985,1.6247-11.8412,6.8165-10.986,18.7448-27.7594,31.2383-47.39,39.7205-27.3158,11.8028-53.8836,7.9717-78.6905-6.9237-12.1118-7.2725-22.7722-16.9661-34.0667-25.5938-5.9746-4.5638-11.7205-9.4592-17.9476-13.6422-2.0935-1.4064-5.3529-1.4695-8.0814-1.4778q-344.9115-.099-689.8238.1727c-12.0941.0066-24.1917-.4589-36.28-.2555-3.2672.055-7.1411.9316-9.6517,2.85-30.558,22.893-54.613,51.4928-96.1333,51.46-38.6324.6441-63.9024-18.3-82.8012-50.9409-.8713-1.1641-3.1144-1.873-4.7086-1.8384-69.8061,1.833-142.5435-39.715-146.5194-115.3188-.9595-12.7012-.7759-25.5012-.8154-38.2583-.1033-33.3286.4447-66.6679-.2411-99.9828a90.2489,90.2489,0,0,1,16.236-54.215c35.4183-49.4409,72.6583-97.6222,108.7889-146.5614,7.7161-10.33,15.2177-20.838,23.3343-30.8454,29.7687-33.6584,82.4135-45.15,125.455-48.6911,7.2345-.5725,7.4927-.4563,7.4871-7.74q-.0643-84.06-.2608-168.1211c-.0378-21.3677-.5081-42.7478.1221-64.0956.1954-6.6179,3.2188-13.1931,5.203-19.71,6.9628-22.8687,13.8019-45.78,21.2011-68.5081,2.4685-7.5824,3.141-15.0862,3.1362-22.9155q-.0981-161.07.0816-322.14c.0083-5.7911.4649-12.0308,2.6164-17.2817,11.6321-28.4559,56.6054-20.3164,55.8346,11.8134q-.1005,164.6958.0547,329.3951a61.127,61.127,0,0,0,2.75,17.3447c8.7639,28.9084,18.0146,57.6692,26.7676,86.5808a53.0926,53.0926,0,0,1,1.7637,15.0846q.2338,102.4068.217,204.8143c.0052,6.7191.2012,13.4413.0486,20.156-.0766,3.3708,1.3512,4.5565,4.5119,4.53,7.9283-.0653,15.8575-.0212,23.7864-.0291q102.2055-.1024,204.4109-.224c10.1359-.0148,10.16-.113,10.1694-10.44.0577-66.7927.45-133.588-.0571-200.3764-.1529-20.1419,2.2012-39.323,9.1132-58.3378,8.1138-22.3211,14.761-45.1767,21.9358-67.8349a20.1982,20.1982,0,0,0,.47-5.9836q.03-166.11-.0138-332.22c-.0044-9.8854,2.3944-18.687,10.347-25.117,9.7616-7.8927,20.7608-8.641,31.8319-3.6909,11.0223,4.9282,16.092,14.3414,16.1375,26.2064q.022,166.1075-.1106,332.2169c-.0166,9.3419,3.9391,17.4681,6.5658,25.9786,7.7987,25.2685,16.0822,50.3871,24.0006,75.6194a32.3246,32.3246,0,0,1,1.1127,9.53q.09,111.8822.0455,223.7645c-.0009,10.7826-.0255,10.8515,10.5469,10.8542q113.2931.0294,226.5861-.0048c7.4271-.0021,7.475-.0851,7.48-7.4641.0529-74.05.2216-148.1-.0173-222.1494-.035-10.84,3.4342-20.5717,6.498-30.5209,7.0735-22.9695,14.1929-45.93,21.772-68.7356,2.5563-7.692,3.2512-15.3216,3.2465-23.2918q-.0965-162.6828.0056-325.3657c.0028-12.9158,6.4784-23.0519,17.448-27.377,19.9293-7.91,41.9768,6.1233,41.0053,28.14q-.0542,83.6591-.0513,167.3188Zm-401.1581,797.91q265.0809-.0817,530.1619.0675c20.6658-.0114,41.3924,1.4428,61.9491-2.12,36.4638-5.2681,75.0166-26.6394,80.41-66.3624a11.1315,11.1315,0,0,0-2.17-9.3715c-35.4078-46.818-70.3149-94.0248-105.6011-140.938-6.1029-8.1426-11.4122-16.93-19.8035-23.19-40.7861-31.2133-93.8458-35.7689-143.4557-36.6959-242.2958-.0139-484.6119-.5242-726.9122-.0314-36.9245.1571-73.9151-2.0261-110.7716,2.1141-36.51,3.9415-84.905,16.9324-108.3912,46.7394-6.2769,8.5533-12.67,17.0207-19.0066,25.53q-47.2906,63.51-94.5151,127.0686a9.9444,9.9444,0,0,0-1.9938,5.8553,57.4378,57.4378,0,0,0,1.82,11.1c11.489,47.1115,64.9174,60.9239,107.56,60.5077C331.2477,995.3616,514.8246,995.8968,698.3973,995.7447Zm6.0249,30.1544v.0252q-239.0455-.0208-478.0906.269c-3.3094.0016-4.7186.623-4.7117,4.3913q.1539,83.0412-.0356,166.083c-.0083,3.89.89,5.4327,5.1215,5.3814q464.9892-.49,929.9858-.1247c8.3284.0036,16.6592.1806,24.9841.4347,3.4694.1059,5.1491-.88,4.944-4.7516q.2682-83.8076.5339-167.682c.0089-2.5014-.7123-3.6267-3.4364-3.6247C1023.968,1025.2449,864.1834,1026.2191,704.4222,1025.8991ZM11.025,1091.8009l-1.38.3487c0,4.7853-.0881,9.5737.08,14.3531a4.5149,4.5149,0,0,0,1.7143,2.55,158.3907,158.3907,0,0,0,37.8067,25.0841c24.9571,11.7625,51.5235,16.8429,78.8,18.3068,20.218,1.4768,41.3521.0511,61.2956,1.98l-.0833,1.7688a74.8779,74.8779,0,0,1-8.0454.7459c-17.0629-.1916-34.1493-.0188-51.18-.8939-42.0781-1.8439-85.4277-13.1666-118.1554-40.8943-.32-.2787-.9068-.2506-1.4737-.3916,0,4.819-.0752,9.3723.0614,13.9193a4.248,4.248,0,0,0,1.33,2.76c5.7776,5.0168,11.2845,10.455,17.5564,14.7734,45.8155,33.029,103.2474,28.6167,156.768,30.1273,1.28.0395,2.5284,1.1559,3.7916,1.77-1.2392.5015-2.4761,1.433-3.7178,1.4393-59.7268,1.0692-126.6247,1.1807-173.69-41.2788,1.07,7.6811,3.7414,14.406,8.6626,20.081,28.4213,31.6253,77.9671,39.17,118.4933,40.2525,21.9028.2468,43.8083.2191,65.7125.3042,5.7374.0222,5.7508.0062,5.7525-5.7024q.0238-80.43.1251-160.86c.0107-4.0451-1.4469-5.0021-5.1287-4.9776-69.5632-1-140.0882,8.8993-195.7617-42.1.5305,8.2388-2.3734,15.5866,5.8891,21.817,13.25,9.9913,27.2386,18.2682,42.8754,23.5165,25.9026,8.6942,52.6826,12.95,79.9367,13.945,15.4346.5635,30.8966.3574,46.3444.6091,1.3821.0225,2.7507.8652,4.1256,1.3269-1.2928.54-2.575,1.5173-3.88,1.549C125.725,1049.47,58.29,1047.334,9.8742,1007.4168c0,5.0886-.1688,9.1015.1,13.0848a5.1951,5.1951,0,0,0,2.1161,3.5421c10.24,6.37,20.152,13.48,30.9843,18.6447C72.65,1056.7891,104.34,1062.22,136.8735,1063.15c16.1151.4608,32.2428.4717,48.3633.7659a19.3129,19.3129,0,0,1,4.1413.9979q-.1269.7725-.254,1.5449c-61.481,3.368-127.6634-1.2044-179.3688-38.3491,0,3.8758.1343,6.6389-.0341,9.3834a7.72,7.72,0,0,0,3.8924,7.7156c4.3032,2.7337,8.2451,6.036,12.5473,8.7716,48.394,31.7473,102.7127,32.9558,158.4718,32.5427a26.6679,26.6679,0,0,1,4.6866.921l-.17,1.5539c-4.5339.9063-9.18.4757-13.7785.5647-58.2229,1.7633-116.4959-5.1692-164.59-40.9541-.3395.629-.565.8559-.5726,1.09-.0447,4.9439-1.54,11.211,2.3589,15.0417,52.1727,44.8619,103.67,44.679,168.4532,44.3407a23.4369,23.4369,0,0,1,4.605,1.0144l-.25,1.4492c-68.1741,1.7711-119.6182,2.0925-175.5431-43.1062,0,5.7164-.085,10.2488.0718,14.773a4.3823,4.3823,0,0,0,1.5415,2.6313,161.8815,161.8815,0,0,0,41.663,27.22c40.554,18.7451,85.2994,18.2309,128.9807,18.33,1.2891.02,2.569.6621,4.62,1.2261-1.3245,1.0081-1.6072,1.3844-1.9523,1.4547a14.8118,14.8118,0,0,1-2.7806.3333C120.6749,1136.092,60.5966,1132.37,11.025,1091.8009Zm1387.9244-83.2564c-1.8667.8624-2.7331,1.024-3.25,1.5375-7.978,7.9232-17.9589,12.6585-27.9241,17.3084-25.7161,11.9994-53.2839,16.8683-81.2009,19.1129-21.119,1.6982-42.4042,1.3572-63.6182,1.7953-1.7532.0363-3.5269-.9115-5.291-1.4021,1.8307-.5741,3.6607-1.6465,5.492-1.6483,34.0313-.033,68.022-.6421,101.4622-7.9672,25.4384-5.5724,49.6563-13.96,69.672-31.5889,4.1829-3.6841,6.2375-14.6582,3.5222-19.9661-3.8206,3.5129-7.2464,7.64-11.5486,10.4038a223.709,223.709,0,0,1-23.8542,13.3778c-49.8523,24.19-106.337,16.5856-159.94,18.2466-3.5354.0114-4.5759,1.0016-4.5644,4.54.1541,53.75-.1611,107.5011-.0994,161.2511.01,5.5019.2131,5.6838,5.7088,5.646,51.0394-1.5092,104.3545,5.1392,152.2217-16.6486,17.34-7.4027,31.4881-20.1036,39.33-37.3826l-1.0378-.8167a143.2492,143.2492,0,0,1-72.0318,31.1715c-29.4306,4.4838-59.12,5.3306-88.855,4.7671-4.2976-.0815-8.6053.0238-12.8877-.2647-1.1356-.0764-2.1943-1.2953-3.2882-1.99,1.1233-.6567,2.2264-1.353,3.3831-1.9442.3158-.1615.7931-.015,1.1959.0025,58.84.2711,125.6922,5.1861,172.1166-37.7155,3.5831-3.3031,5.5867-12.04,3.35-16.8957-7.7918,5.1955-15.3774,10.8-23.5515,15.3078-19.4646,10.5543-40.7354,14.94-62.5632,17.0612a741.58,741.58,0,0,1-87.766,3.2537c-1.9877-.0427-3.9529-1.1393-5.9285-1.7456,1.9441-.6248,3.8931-1.8086,5.8313-1.7911,57.2735-1.1225,124.2409,4.241,170.654-35.2179,1.7254-1.46,4.42-3.0376,4.6225-4.7957.6136-5.316.2218-10.7483.2218-17.0776a29.6216,29.6216,0,0,0-3.7425,2.1056c-28.48,23.4534-65.8928,31.8636-101.9723,33.55-23.7445,1.2006-47.507,2.0521-71.2672,2.9027-1.309.0469-2.6675-1.2949-4.003-1.99,1.3238-.5457,2.6325-1.5242,3.9737-1.5714,16.9127-.5939,33.8657-.5312,50.7365-1.6861,46.655-3.1562,87.6873-5.2,124.2109-38.41.881-.7688,2.1493-1.7712,2.1909-2.7114.2192-4.9688.1028-9.9523.1028-14.9308l-1.4958-.3129a133.5811,133.5811,0,0,1-70.2281,33.1315c-35.28,5.49-70.88,6.4348-106.5232,5.9694-1.1563-.015-2.2978-1.1677-3.4462-1.79,1.19-.5646,2.3685-1.5945,3.5709-1.623,37.5449-1.0217,75.4157.2764,112.4246-7.348a131.7461,131.7461,0,0,0,63.8688-34.059,4.5721,4.5721,0,0,0,1.5125-2.6826c.1662-3.965.071-7.941.071-12.98-1.8077,1.2456-2.7624,1.8176-3.6192,2.5106-21.2163,18.6451-47.6723,28.3983-75.408,31.4864-32.7655,3.6657-65.6971,3.9807-98.6245,3.9566-1.18-.0009-2.36-1.1521-3.54-1.7671,1.2892-.618,2.5683-1.7507,3.8692-1.7762,17.5971-.3452,35.2287.0371,52.7885-.92,44.9132-2.5566,85.3216-3.1406,120.1246-36.0161a14.5334,14.5334,0,0,0,3.1911-17.4186c-49.445,40.5511-117.012,34.7888-177.0288,35.5478-1.0622.0022-2.1271-1.0452-3.1907-1.6031,1.1329-.6073,2.2365-1.2834,3.414-1.7862.4433-.189,1.06.0678,1.5946.0476,31.4065-1.1812,62.8869-1.4111,94.1975-3.8352a135.9721,135.9721,0,0,0,79.4333-33.0731,9.0059,9.0059,0,0,0,3.0876-5.1878C1399.2612,1017.9759,1398.9494,1013.6693,1398.9494,1008.5445Zm-694.11-301.8312c.1586-104.3038-.8941-207.67-1.3532-311.8413a8.8378,8.8378,0,0,1,.13-3.19,10.0957,10.0957,0,0,1,2.1318-2.4866,27.2516,27.2516,0,0,1,1.9359,2.738c.2249.4071.0076,1.0526.0093,1.59q.4263,156.7616.9316,313.3281c4.2264,0,8.2319-.2406,12.1947.0673,4.0094.3115,5.2546-.9624,5.2052-5.1293-.297-24.99-.2947-49.9841-.3873-74.9767a5.9963,5.9963,0,0,1,.1383-2.3869c.3316-.7205,1.1409-1.2211,1.7418-1.8177.5384.6407,1.4845,1.2457,1.5443,1.9283.8625,26.0351.248,52.13.39,78.1835-.012,3.108.7523,4.3862,4.02,4.2014,2.9634-.1674,5.3968.1351,5.3987-4.2507.5261-76.9843.47-153.9714.5324-230.958.0029-1.4659,1.0835-2.93,1.6615-4.3944.451,1.4776,1.2954,2.9548,1.2966,4.4328.0638,78.17.0564,156.34.0564,234.9166,1.7284.164,3.553.4306,5.3847.4945,7.5071.2613,7.6863.1276,7.6821-7.4087q-.0617-111.8676-.2347-223.735a44.6749,44.6749,0,0,0-1.7447-13.0829c-8.6614-27.6675-17.6642-55.2282-26.382-82.8785-.8422-2.6713-1.9664-3.7587-4.6766-3.7509-11.1467.0321-22.3041.23-33.4358-.1974-4.9865-.1914-6.7026,2.0223-7.9926,6.2751-6.6594,21.954-13.3364,43.9072-20.43,65.7232-4.0115,12.3369-6.8521,24.622-6.8167,37.7856.2055,73.5943-.0739,147.123-.1269,220.7262h13.8247C666.59,624.63,664.4958,543.17,664.8372,461.57a3.9923,3.9923,0,0,1,2.004,2.7921,62.3431,62.3431,0,0,1,.4572,6.8316c1.096,78.6364,2.4642,157.178,3.3889,235.8265,3.3623,0,6.3017-.1016,9.2309.0272,3.2172.1414,4.46-.919,4.2327-4.4281-2.5621-47.4864-1.0952-95.1044-1.7215-142.6433a35.3833,35.3833,0,0,1,.713-6.3952c.1107-.6072.95-1.0816,1.4552-1.6169.5838.6032,1.38,1.115,1.69,1.8359a6.417,6.417,0,0,1,.0845,2.3881c.2232,50.3063-1.1568,100.1753,1.0738,150.5257Zm387.65-.2363c2.0345.1931,3.2035.4144,4.3689.3971,7.6664-.1142,6.4426.6185,6.49-6.4347.5083-76.3247.7915-152.6512,1.5352-228.9741.0132-1.3639.9944-2.7183,1.5247-4.0771.4918,1.316,1.3856,2.6244,1.4109,3.9493.5082,76.3228-.6925,152.6545-.8337,228.98-.0348,6.7623.033,6.7626,6.8963,7.35,6.2282.5333,6.2527.5332,6.2517-5.824q-.0168-114.2923-.1422-228.5845a45.2029,45.2029,0,0,0-2.208-13.0129c-8.2009-26.5578-16.6774-53.0305-24.9075-79.5795-.9219-2.9738-2.3612-4.1667-5.3765-4.1439-11.0183.0831-22.0418.2289-33.054-.0385-4.2991-.1044-6.0918,1.5322-7.3049,5.5246-6.7091,22.0817-13.8365,44.0368-20.491,66.1345-2.7709,9.2014-6.6314,18.1317-6.6477,28.0893-.1035,76.89-.4439,153.668-.5959,230.571,3.1289,0,5.9173-.1694,8.6763.0436,3.3485.2584,4.48-1.0353,4.3684-4.38-1.1134-37.7431-.9886-75.5123-1.42-113.2672q-.4906-59.8638-.9086-119.7281a17.9722,17.9722,0,0,1,.83-3.8673l1.5146-.0793c3.5287,76.3121,1.7818,153.3264,3.4793,229.87.1211,11.5311.0608,11.3638,11.4349,11.5041,4.0091.0494,4.8337-1.3477,4.8553-5.1128.7131-42.4351-.3018-84.9626,1.8822-127.3451.0644-.8043,1.0378-1.5368,1.59-2.3025a12.5077,12.5077,0,0,1,1.2474,2.2073,6.45,6.45,0,0,1,.035,2.0021c-.2668,43.5454-.7713,86.8716-.8906,130.446,3.762,0,6.9681.017,10.174-.0036,5.7789-.0371,5.7979-.0467,5.7336-6.01-1.2862-101.58-1.4443-203.17-1.9854-304.7558-.0073-1.7853,1.27-3.5759,1.9486-5.364.65,1.8159,1.8461,3.6255,1.8667,5.4484,1.0008,100.3771,1.1582,200.761,1.7541,301.1411.049,9.6866.0787,9.5475,9.1721,9.7186,3.5352.0664,4.6-1.0874,4.5207-4.607-.3491-15.5822-.4479-31.17-.6322-46.7562a14.2456,14.2456,0,0,1,.0888-4.0078,13.4027,13.4027,0,0,1,2.0582-3.249,16.3536,16.3536,0,0,1,1.6165,3.1377,12.3811,12.3811,0,0,1,.0721,3.2092C1092.4892,671.8749,1092.489,689.0545,1092.489,706.477Zm-730.48.2284c3.295,0,6.0974.2711,8.798-.135,1.0633-.16,2.2042-1.69,2.7461-2.8577.7263-77.3943.2576-155.1312.9355-232.5548a2.6879,2.6879,0,0,1,1.6009-1.3635c.2165-.0821,1.0329.7475,1.1667,1.2659,1.3692,78.5574-.178,157.1.0652,235.7146,3.7051,0,6.9106-.1172,10.1031.0372,2.5461.123,3.6738-.6667,3.5649-3.4011.1908-68.6563-.1193-137.344-.0612-206.0109-.0014-15.4663-.6187-30.5817-5.9134-45.5955-8.2563-23.412-14.9487-47.3767-22.2217-71.1324-.7591-2.4794-1.8026-3.9511-4.65-3.9377-11.959.0565-23.9186.0065-35.8779-.0468-2.3044-.01-3.4791.7507-4.2213,3.2132-6.1578,20.4317-12.0194,40.9737-18.9581,61.1426-6.1664,17.9239-9.3461,36.0366-7.9763,54.9437.08,67.5814-.0079,135.196.0781,202.7882.0077,8.9614.1687,8.894,9.0613,8.014,2.3744-.2348,2.7984-1.2473,2.7647-3.3644-1.0722-79.4272-2.0888-158.9157-1.8672-238.329l1.5458-.2462a15.5725,15.5725,0,0,1,1.0578,3.82c1.0773,75.7836,1.4823,151.5751,2.3226,227.3614.1157,11.1066.2881,11.0438,11.3958,10.7,2.6215-.0813,3.9814-.6076,3.6824-3.6652-.17-42.8263,1.3245-85.7153,1.8037-128.5583a18.7165,18.7165,0,0,1,1.0547-4.179l1.6547.06c1.4131,41.715-.75,83.7235-.5941,125.5347-.1113,10.9544-.0947,10.9545,10.682,10.8093,5.5039-.0744,5.576-.075,5.5271-5.5279Q339.808,551.0387,338.77,400.8692c-.0166-2.5221-1.5-7.1006,1.9762-7.1489,3.4714-.048,2.0792,4.6082,2.1164,7.073,1.4647,102.0309,1.3014,203.9044,1.6709,305.9645,4.0686,0,7.4017-.1577,10.7124.0474,2.9062.18,3.991-.6094,3.903-3.7892-.2825-10.207-.2278-20.4236-.2723-30.6367-.03-6.8535-.07-13.7087.0676-20.56.018-.9,1.0613-1.7785,1.63-2.667a12.169,12.169,0,0,1,1.3164,2.4865,10.975,10.975,0,0,1,.1156,2.8084C362.01,671.63,362.0091,688.813,362.0091,706.7054ZM1380.8558,934.9677q-.7725.2077-1.5451.4153c-13.05,52.3841-69.442,70.1954-117.8872,70.3025q-556.313-.369-1112.6289.0113c-47.4486.0111-106.89-15.9694-118.1765-68.9145-.1009-.4357-.5755-.7849-1.0895-1.4522a18.1827,18.1827,0,0,0-5.96,14.5732c.3,10.3565,2.6619,20.3624,8.5231,29.0057,21.7063,33.459,63.9305,39.1992,100.7343,38.7649q553.4894-.1122,1106.9833.04c44.7982-.4239,98.3106,5.6179,131.0159-31.5462,10.3278-11.6742,15.4753-25.4209,13.9373-41.1166C1384.4241,941.5953,1382.2076,938.3239,1380.8558,934.9677ZM45.8432,1197.4662l-1.6894,1.9638a21.5935,21.5935,0,0,1,4.3226,2.015c27.332,20.9984,58.4553,30.9184,92.6677,30.8329,46.3586-.1156,92.7148-.955,139.0735-1.2376q473.2637-1.6014,946.5342.91c20.5364.0639,41.171.3889,61.59-1.38,28.8038-2.7671,56.3526-13.7191,77.1974-34.3976l-.7229-.8568c-30.4865,16.4494-64.0486,24.2973-98.5014,24.6909-208.9378,2.6148-417.8945,1.1087-626.8423,1.38-162.1884.4468-324.3717.5816-486.5538-.8227A242.7967,242.7967,0,0,1,45.8432,1197.4662Zm1333.0806-18.6513-1.6636-1.899a181.3219,181.3219,0,0,1-101.2357,30.7543q-566.59-1.6294-1133.2215.1318c-38.6679-.5189-77.7494-8.703-110.0292-31.0393a3.5679,3.5679,0,0,0-1.3259-.2579l-.57.82c22.3581,21.73,52.2342,30.8359,82.2063,35.8289,15.3441,2.4225,30.7768,1.8065,46.2318,1.8417,350.84,2.8812,701.7343,1.204,1052.59.0108,26.98-.12,54.0574.0217,80.907-2.1836a153.3334,153.3334,0,0,0,81.99-31.5962A36.9529,36.9529,0,0,1,1378.9238,1178.8149Zm-289.305-811.9925q.0018-145.27.0517-290.4413c.0011-5.3476-.0055-5.4087-5.2866-5.4367-9.4065-.05-18.8171.13-28.2188-.09-3.91-.0916-5.0189,1.3016-4.9966,5.1223.061,93.26-.1973,186.5224-.1845,279.7831-.0057,11.3025.0669,11.125,10.9826,11.3516,4.19.087,5.0932-1.3712,5.0885-5.3434q-.1278-111.6747.0076-223.35c.0005-1.0749-.3594-2.3665.1091-3.1743a17.3081,17.3081,0,0,1,3.05-3.1617c.9621,1.04,2.2642,1.9346,2.7871,3.1615.4886,1.1462.1728,2.6449.1722,3.9885q-.032,111.8747-.0878,223.7494c-.0005,1.9854.0423,3.869,2.8163,3.8494C1080.3164,366.8,1084.7236,366.8224,1089.6188,366.8224ZM320.775,219.3047h-.0338q0,69.7425.0167,139.485c.0075,9.55-1.2952,8.0115,8.4336,8.3826,7.5156.2866,7.5482.162,7.544-7.2281q-.0958-111.6657-.1714-223.3315c-.0066-2.5055.1637-4.8621,3.3081-4.8509,3.164.0112,2.8159,2.6642,2.8941,4.7663,1.2953,75.6241-.1563,151.3.4584,226.9411-.0057,2.8616,1.2283,3.8186,3.9282,3.6238a62.8993,62.8993,0,0,1,8.0539-.2148c3.32.188,4.3318-1.0395,4.32-4.4176q-.2785-78.0047-.3159-156.01-.076-65.3081.004-130.616c.01-3.927-1.1846-5.0928-5.019-4.9858-8.3246.2323-16.6612-.0063-24.9921.0515-8.6026.0595-8.4009-1.5789-8.41,8.5167Q320.7308,149.3608,320.775,219.3047Zm402.744-.1811h-.0121q0-71.7627.0744-143.5252c.0087-3.7081-1.0341-4.8753-4.7734-4.7668-8.4584.2453-16.93-.0184-25.3961.0388-8.6052.058-8.0657-1.1162-8.0693,8.0183q-.0547,139.2919.0434,278.5839c.01,11.2485-1.0411,9.2917,9.411,9.5575,6.25.159,6.2807.1007,6.2756-6.0069-.022-79.02-.2685-158.0394-.0866-237.0586.0006-2.4061.4415-4.4542,3.3609-4.4244,2.9075.03,2.819,2.3214,2.8892,4.3669.1381,4.0285.3768,8.0575.374,12.0862-.0218,74.4463-.2422,148.8928-.1933,223.339.0172,7.7628.1374,7.7639,7.6429,7.6543a29.1511,29.1511,0,0,1,3.6247-.0552c3.9138.4369,4.9259-1.2645,4.9159-5.0886Q723.4139,290.4836,723.519,219.1236ZM170.0062,1253.4269c31.68,45.54,95.3345,40.3257,130.347,1.7392C256.8113,1258.3533,213.4688,1258.9114,170.0062,1253.4269Zm1068.123.9991c-44.48,2.9515-85.19,3.9869-129.6711,3.2924C1149.6826,1294.8966,1199.7921,1296.7756,1238.1292,1254.426ZM1089.6417,42.2127h.0259c0-4.6945.0626-9.39-.0129-14.0832.0253-22.9591-37.8834-24.5439-38.2763-.5869-.2276,9.92-.0146,19.8507-.1842,29.7736-.0554,3.2524,1.326,4.1649,4.327,4.1278q15.2878-.1893,30.5788-.0756c2.9045.0254,3.6721-1.1723,3.5878-3.8672C1089.5285,52.41,1089.6417,47.3093,1089.6417,42.2127Zm-730.4771-.1743h-.0191c0-5.101.2337-10.2173-.0974-15.2967a17.6954,17.6954,0,0,0-2.167-7.5922c-8.95-15.2885-36.309-10.3772-35.9621,9.5472-.1412,9.261.0091,18.5275-.2025,27.7863-.0825,3.61,1.1478,5.0806,4.835,5.017q14.8976-.2571,29.8007-.0978c3.07.0331,3.9466-1.1886,3.857-4.0611C359.05,52.2447,359.1646,47.14,359.1646,42.0384ZM723.51,42.0072c0-4.8278.4438-9.7109-.1487-14.4649C722.0561,14.77,711.2489,7.4014,698.165,11.1171c-7.1444,1.9678-12.0427,7.3434-12.4626,15.42-.5494,10.5641-.2337,21.1733-.2816,31.7632-.0127,2.812,1.8556,3.1518,4.08,3.1424,10.0578-.0428,20.1164-.1218,30.1729-.0216,3.0668.0306,3.9517-1.2925,3.8787-4.1266C723.4211,52.2018,723.5153,47.1033,723.51,42.0072ZM1245.6247,1241.76H1089.722q-.2905.6693-.5809,1.3388c5.1289,3.4412,10.2483,6.8967,15.4057,10.2948.391.2577,1.05.116,1.5857.1461,43.8079,2.4659,87.5137.9208,131.146-3.3812C1242.6567,1249.628,1244.3406,1247.9652,1245.6247,1241.76Zm-1082.9827.234c.3751,4.4891,2.6845,6.5654,6.4083,7.0114,9.4631,1.1337,18.9245,2.37,28.4219,3.1149,35.1693,2.76,70.316,1.9927,105.4285-1.1413,5.8146-.5189,9.039-4.89,12.6446-8.985ZM1378.4149,991.516l1.1146,1.09c7.32-6.3239,15.5295-13.1479,16.1406-23.5423.1679-2.33-.7265-4.7369-1.1355-7.1087-3.12,5.3543-4.7524,10.5965-7.2248,15.4072C1384.7723,982.3,1381.4139,986.8156,1378.4149,991.516ZM14.7755,963.4132c-5.106,7.05,4.0447,24.3131,14.972,28.16Z" transform="translate(0 0)"/><path class="cls-4" d="M704.0344,959.1215c-184.2357-.24-368.4866.4141-552.7156.1086a181.2909,181.2909,0,0,1-33.15-3.4314c-16.97-3.49-28.3788-19.1721-26.7219-35.2622.9463-9.19,5.2723-17.15,10.5212-24.5559,19.1071-26.9584,38.4675-53.739,57.3928-80.8238,9.5317-13.6415,18.1091-27.9472,27.5349-41.6661,7.8992-11.4972,17.8711-20.7431,31.4963-25.2585,1.0176-.3374,2.2139-1.0612,3.0619-.7865a25.0783,25.0783,0,0,1,4.534,2.506c-.836,1.3273-1.4524,3.5869-2.5407,3.8434-19.5577,4.6079-30.1171,19.5858-40.475,34.7893C162.33,818.8837,141.6418,849.1528,121.189,879.58c-6.3583,9.4591-12.699,19.0412-17.8548,29.174-10.1421,19.9325-.8471,38.7054,21.22,42.9006a170.51,170.51,0,0,0,31.9813,3.2148c44.88-.0917,89.7576-1,134.6379-1.2059,150.105.4045,300.2088-.9181,450.3136-1.3358,164.08-.1664,328.1637,1.0818,492.2444.8438,16.081-.03,32.1778-1.7335,48.23-3.106,18.8039-1.1355,33.8074-18.4149,24.6058-36.8879-3.9557-8.5974-9.0949-16.7221-14.3328-24.6456-26.8818-39.6423-52.1142-80.5365-80.8551-118.8648a40.12,40.12,0,0,0-24.1514-15.0155c-1.442-.2818-3.6059-2.6157-3.5057-3.8422.2062-2.5244,2.61-3.0681,4.9967-2.4516,9.9289,2.5648,18.5783,7.671,24.9437,15.493a289.79,289.79,0,0,1,21.3257,29.7375c19.4523,31.2751,40.3081,61.5736,61.626,91.59,6.4092,9.0244,12.3928,18.6487,16.7138,28.79,6.7332,15.8018-.1161,31.0327-15.5929,38.6171-12.0962,5.928-25.1,6.751-38.16,6.7324q-277.7689-.975-555.5394-.5741Q704.0345,958.9324,704.0344,959.1215Z" transform="translate(0 0)"/><path class="cls-4" d="M528.4453,741.3564c159.55-4.1466,319.4529-2.7393,479.1266-3.8421q48.7665-.1758,97.5336-.1446c1.2915.0009,2.5825,1.0419,3.8738,1.5985-1.3123.6011-2.6179,1.7116-3.9379,1.729q-288.23,4.4312-576.504,2.2749Z" transform="translate(0 0)"/><path class="cls-4" d="M389.6274,829.4118c132.2455-10.2308,265.4031-11.1372,398.0791-9.583,73.5653,1.8718,147.3568,2.4538,220.6381,9.0985-203.85-6.8722-413.5666-9.6434-618.6,1.5488Z" transform="translate(0 0)"/><path class="cls-4" d="M434.0545,801.1381c171.315-8.865,343.3534-5.1917,514.8932-1.6838,4.2962.08,8.5918.3466,12.879.6492a20.4274,20.4274,0,0,1,3.7491,1.055c-175.412-1.6554-354.86-3.7215-531.37,1.2876Q434.13,801.7923,434.0545,801.1381Z" transform="translate(0 0)"/><path class="cls-4" d="M913.8045,775.874H489.0879l-.25-.9081a23.618,23.618,0,0,1,4.4356-.9374c24.8445-.49,49.6894-1.2073,74.5362-1.294,115.3312.5734,230.8982-2.7425,346.1144,1.1434Q913.8642,774.8758,913.8045,775.874Z" transform="translate(0 0)"/><path class="cls-4" d="M860.33,852.2873c-99.7485.65-199.5406-1.3847-299.2958.1822a2.45,2.45,0,0,1-.8014.0051c-1.4432-.5257-2.8724-1.09-4.3062-1.6418,1.3623-.49,2.7186-1.3908,4.088-1.4109,88.6772-1.8325,177.37-.7519,266.0581-.54,10.0769.0375,20.1541.2884,30.2285.541a22.8991,22.8991,0,0,1,4.3979.9731Q860.5143,851.3415,860.33,852.2873Z" transform="translate(0 0)"/><path class="cls-4" d="M706.8467,874.8471c-25.7812,0-51.5626.0246-77.3434-.0721-1.2927-.0048-2.5814-1.0593-3.872-1.6249,1.3163-.5879,2.6239-1.6642,3.95-1.6875,52.3375-.6406,104.7822.0421,157.0771.5179.5309.17,1.3458.9482,1.2638,1.2331-.1818.6315-.7948,1.5277-1.3268,1.598-26.5563.4344-53.1737.0133-79.7487.1555Z" transform="translate(0 0)"/><path class="cls-4" d="M954.2668,856.7606c1.8042-.4047,3.6256-1.2241,5.41-1.15,17.7009.7345,35.4077,1.4209,53.0894,2.502,30.7843,2.3961,61.88,3.0541,92.48,6.7759q.1041.7278.2081,1.4556c-1.2655.3816-2.5583,1.1673-3.7926,1.0844-19.2819-1.2959-38.5471-2.8476-57.8345-4.0491-29.7021-1.7458-59.4088-3.5326-89.1417-4.6716Q954.4763,857.7342,954.2668,856.7606Z" transform="translate(0 0)"/><path class="cls-4" d="M288.7315,864.923c44.5125-4.1152,89.3507-5.393,133.9778-8.4608,4.0161-.2344,8.0421-.428,12.0616-.3983a4.1428,4.1428,0,0,1,3.2048,2.2388q-73.9506,4.632-147.9042,9.2169c-.6938.0428-1.4313-.6221-2.1483-.9567Q288.3273,865.743,288.7315,864.923Z" transform="translate(0 0)"/><path class="cls-4" d="M1170.1927,1180.7213a27.734,27.734,0,0,1-.8088-4.7666q.1509-63.293.49-126.5879c-.0312-2.2916.336-5.07-3.5989-4.8526-6.0442.3338-6.1419.3836-6.1561,5.15-.1162,38.8368-.1411,77.6749-.5034,116.51-.1244,13.3424-.909,10.4563-11.0011,10.4564-301.2635,1.2789-602.928-2.458-903.981,1.2666-.4017-6.617.9921-12.9218,1.1063-19.46.1915-36.419.2393-72.8386.4016-109.2577.0118-2.6511-.2876-4.3612-3.5589-4.41-3.3379-.05-3.1657,1.9257-3.152,4.21q.312,52.2077.5429,104.4158c.02,5.1023-.2227,10.2079-.4459,15.3075a20.1871,20.1871,0,0,1-.7958,3.5652q-.77.0173-1.54.0342a42.4462,42.4462,0,0,1-.6127-4.969c-.7614-41.0993.2188-82.2815-1.5846-123.3409-.3673-3.8746.9248-5.241,4.83-5.1986,306.5439.6705,613.0933.0432,919.6389.1181,4.0288-.002,8.0578-.1309,12.0861-.2307,2.3772-.0591,3.0442.8444,2.4295,3.2438a29.9225,29.9225,0,0,0-.8658,7.11c-.6533,43.8412-.1373,87.746-1.3447,131.556Zm-467.4211-11.2986v-.03q222.7542.0992,445.5089.0785c3.9578.0181,5.68-1.2429,5.5226-5.3058.5015-35.582.1026-71.2247.11-106.8286-.0362-11.3736,1.12-9.9588-9.8826-9.96q-442.8835.0243-885.7671-.1392c-3.8133-.0035-5.2929,1.1017-5.2844,4.9791.0811,37.2255.0291,74.4515.084,111.6773.0081,5.5066.1792,5.5262,5.8054,5.5263Q480.82,1169.4245,702.7716,1169.4227Z" transform="translate(0 0)"/><path class="cls-4" d="M708.3568,1191.0642q-227.1738,0-454.3478-.0865c-2.1719-.0012-5.2782,1.7349-6.5344-1.9276,304.0041-4.8439,609.2367.079,913.6437-2.1782a61.2724,61.2724,0,0,1,7.2328.4214c.5265.0622.9473,1.0184,1.4166,1.5629-.4781.3913-.9135,1.0344-1.4427,1.1242a24.69,24.69,0,0,1-4.0151.2579c-151.9829.9252-303.9682.5684-455.9531.6088Z" transform="translate(0 0)"/><path class="cls-4" d="M1082.7267,1107.8041a38.7781,38.7781,0,0,1-39.0374,38.8223c-52.3362-1.3817-50.9986-77.2972.2114-78.43C1065.5071,1068.2155,1082.7588,1085.8141,1082.7267,1107.8041Zm-39.0078,29.3935c16.1387.036,29.6724-13.1069,29.6668-28.81-.0059-16.5231-13.2609-30.3485-29.156-30.4106-16.093-.0629-29.7865,13.2973-29.8916,29.164C1014.23,1123.4181,1027.665,1137.1619,1043.7189,1137.1976Z" transform="translate(0 0)"/><path class="cls-4" d="M329.806,1107.083c.0911-21.638,17.0131-38.88,38.0185-38.7369,51.7108,1.1625,52.4594,77.0516.6387,78.2153C346.5049,1146.389,329.7125,1129.24,329.806,1107.083Zm68.0193,1.2948a29.8524,29.8524,0,0,0-29.6769-30.239,29.1087,29.1087,0,0,0-28.9385,28.964c-.0049,16.3812,13.45,30.1263,29.4358,30.0716C384.5962,1137.12,397.8282,1124.0615,397.8253,1108.3778Z" transform="translate(0 0)"/><path class="cls-4" d="M669.6014,1069.1682c21.58-.2356,38.5643,16.56,38.8431,38.4113a38.4659,38.4659,0,0,1-37.8457,38.7064c-20.8565.3061-38.7574-17.1987-39.0307-38.1667C631.2826,1086.23,647.7087,1069.4072,669.6014,1069.1682Zm29.2134,39.1089a29.1636,29.1636,0,0,0-28.8371-29.5266c-15.0633-.2345-28.4747,12.5725-28.9465,27.1735-.4206,13.0157,13.8427,30.8469,28.6547,30.5889C685.6808,1136.2341,698.5176,1124.2405,698.8148,1108.2771Z" transform="translate(0 0)"/><path class="cls-4" d="M930.7093,1107.6273a38.389,38.389,0,0,1-38.3453,38.9517c-51.37-1.1331-52.2057-75.8679-.7041-78.197C913.2628,1068.1066,930.4234,1085.353,930.7093,1107.6273Zm-9.3653.6513c.0636-16.8233-13.0711-30.2283-29.6078-30.217-15.638.0107-28.7676,13.2836-28.8905,29.2058-.123,15.9276,13.2607,29.9074,28.6361,29.9115C908.1525,1137.1834,921.2828,1124.4759,921.344,1108.2786Z" transform="translate(0 0)"/><path class="cls-4" d="M557.994,1107.3331c.2065,21.6659-16.4661,39.0771-37.56,39.2233-51.6192-.9829-52.8883-75.571-1.9474-78.4366C540.3947,1067.8417,557.782,1085.1,557.994,1107.3331Zm-9.349.6186a29.91,29.91,0,0,0-29.5233-29.9744c-15.6683-.132-28.6452,13.05-29.0384,28.9945-.4389,17.7978,16.0021,30.2933,28.9375,30.2424A29.4287,29.4287,0,0,0,548.645,1107.9517Z" transform="translate(0 0)"/><path class="cls-4" d="M1044.0626,1085.2887c12.5928.1861,22.5605,10.0127,22.4068,22.09-1.7239,30.6458-44.4914,30.2033-45.3637-.6186C1021.22,1094.6909,1031.4712,1085.1026,1044.0626,1085.2887Zm18.4167,22.4827a19.1894,19.1894,0,0,0-18.8164-19.1232c-9.8127-.0742-18.9474,9.01-18.9072,18.8018.0416,10.0851,9.1206,19.0251,19.4583,19.16C1053.5574,1126.7322,1062.4436,1117.5671,1062.4793,1107.7714Z" transform="translate(0 0)"/><path class="cls-4" d="M345.9128,1106.7855c-.0582-12.0494,9.7391-21.5017,22.2791-21.4944,29.6913.6251,30.3551,43.4908.2824,44.7645C355.8111,1130.1508,345.9767,1120.0076,345.9128,1106.7855Zm22.57,19.3838c9.8294.087,18.6142-8.5636,18.6413-18.3566.0279-10.0692-8.5109-18.9356-18.4417-19.1493-9.9778-.2145-19.1547,8.6906-19.3744,18.8006C349.0918,1117.43,357.9548,1126.0762,368.4832,1126.1693Z" transform="translate(0 0)"/><path class="cls-4" d="M684.37,1091.6555c6.6156,4.021,7.6326,10.4967,7.06,17.4307-.57,16.2684-20.1452,25.656-33.5522,17.2319l.0663-1.6481c1.4561,0,3.0081-.3332,4.353.0537,9.3034,2.6756,15.4666.8967,21.5424-6.4214a18.0221,18.0221,0,0,0,.803-22.3606,23.0556,23.0556,0,0,1-1.7122-3.6893Z" transform="translate(0 0)"/><path class="cls-4" d="M892.7332,1085.2773c12.3638.0914,21.9858,10.2326,21.8372,23.0157-.1386,11.9179-10.654,21.9581-22.8329,21.8009a22.5466,22.5466,0,0,1-22.1966-22.8533C869.5626,1094.4824,879.3869,1085.1788,892.7332,1085.2773Zm17.93,22.49a19.0231,19.0231,0,0,0-19.2387-19.0658c-9.61.06-18.3364,9.0982-18.26,18.913.079,10.2014,9.1792,19.0538,19.4845,18.9543C901.722,1126.4809,910.6936,1117.1175,910.6632,1107.767Z" transform="translate(0 0)"/><path class="cls-4" d="M519.3628,1085.2683c12.5477-.1844,22.0562,9.181,22.3247,21.9885a22.5353,22.5353,0,1,1-45.0687.3958C496.3242,1094.7678,505.7736,1085.4679,519.3628,1085.2683Zm-.38,40.9128c9.4346.18,18.9051-8.5424,19.1187-17.6077.0127-25.2246-36.2707-26.8129-37.6272-1.6206A18.8148,18.8148,0,0,0,518.9826,1126.1811Z" transform="translate(0 0)"/></g></svg>